<svg id="Layer_1" data-name="Layer 1" xmlns="http://www.w3.org/2000/svg" viewBox="0 0 31.99 28.7"><defs><style>.cls-1{fill:#4ac8ee;}</style></defs><title>icon-react</title><g id="_Group_" data-name="&lt;Group&gt;"><path id="_Compound_Path_" data-name="&lt;Compound Path&gt;" class="cls-1" d="M16,21.12c-7.75,0-16-2.37-16-6.77S8.24,7.58,16,7.58,32,10,32,14.35,23.75,21.12,16,21.12ZM16,9.58c-8,0-14,2.52-14,4.77s6,4.77,14,4.77,14-2.52,14-4.77S24,9.58,16,9.58Z"/><path id="_Compound_Path_2" data-name="&lt;Compound Path&gt;" class="cls-1" d="M10.14,17.75C6.25,11,4.16,2.72,8,.52S18,4.25,21.85,11s6,15,2.18,17.23S14,24.45,10.14,17.75Zm10-5.79C16.09,5,10.91,1.12,9,2.25s-1.12,7.57,2.91,14.5S21.08,27.58,23,26.45,24.14,18.88,20.12,12Z"/><path id="_Compound_Path_3" data-name="&lt;Compound Path&gt;" class="cls-1" d="M10.12,11C14,4.26,20.1-1.72,23.92.46s1.79,10.51-2,17.25-10,12.72-13.8,10.54S6.28,17.73,10.12,11Zm10,5.71c4-7,4.75-13.4,2.79-14.52S15.82,5,11.85,12,7.11,25.39,9.06,26.51,16.17,23.67,20.14,16.71Z"/><circle id="_Path_" data-name="&lt;Path&gt;" class="cls-1" cx="15.99" cy="14.35" r="2.99"/></g></svg>