<svg id="Layer_1" data-name="Layer 1" xmlns="http://www.w3.org/2000/svg" viewBox="0 0 27.56 28.74"><defs><style>.cls-1{fill:#b2b1b2;}.cls-2{fill:#e13136;}.cls-3{fill:#b52e30;}.cls-4{fill:#f1f1f1;}</style></defs><title>icon-angular</title><g id="_Group_" data-name="&lt;Group&gt;"><polygon id="_Path_" data-name="&lt;Path&gt;" class="cls-1" points="13.78 0 0 4.66 2.08 22.49 13.78 28.74 25.48 22.49 27.56 4.66 13.78 0"/><polygon id="_Path_2" data-name="&lt;Path&gt;" class="cls-2" points="13.78 1.08 1.39 5.39 3.27 21.88 13.78 27.66 24.29 21.88 26.17 5.39 13.78 1.08"/><polygon id="_Path_3" data-name="&lt;Path&gt;" class="cls-3" points="24.29 21.88 26.17 5.39 13.78 1.08 13.78 27.66 24.29 21.88"/><g id="_Group_2" data-name="&lt;Group&gt;"><polygon id="_Path_4" data-name="&lt;Path&gt;" class="cls-4" points="13.79 2.33 5.26 20.91 8.42 20.91 10.17 16.75 13.79 16.75 13.79 14.21 11.01 14.21 13.79 8.33 13.79 2.33"/><polygon id="_Path_5" data-name="&lt;Path&gt;" class="cls-1" points="13.77 2.33 22.3 20.91 19.14 20.91 17.39 16.75 13.77 16.75 13.77 14.21 16.55 14.21 13.77 8.33 13.77 2.33"/></g></g></svg>