<?xml version="1.0" encoding="UTF-8"?>
<svg xmlns="http://www.w3.org/2000/svg" xmlns:xlink="http://www.w3.org/1999/xlink" width="48px" height="48px" viewBox="0 0 48 48" version="1.1">
<g id="surface620360">
<path style=" stroke:none;fill-rule:nonzero;fill:rgb(74.117647%,74.117647%,74.117647%);fill-opacity:1;" d="M 23.933594 2 L 3 9.285156 L 6.308594 36.40625 L 23.953125 46 L 41.691406 36.277344 L 45 9.15625 Z M 23.933594 2 "/>
<path style=" stroke:none;fill-rule:nonzero;fill:rgb(71.764706%,10.980392%,10.980392%);fill-opacity:1;" d="M 42.816406 10.527344 L 24 4.136719 L 24 43.695312 L 39.832031 35.015625 Z M 42.816406 10.527344 "/>
<path style=" stroke:none;fill-rule:nonzero;fill:rgb(86.666667%,17.254902%,0%);fill-opacity:1;" d="M 23.941406 4.113281 L 5.179688 10.644531 L 8.167969 35.144531 L 23.949219 43.722656 L 24 43.695312 L 24 4.136719 Z M 23.941406 4.113281 "/>
<path style=" stroke:none;fill-rule:nonzero;fill:rgb(74.117647%,74.117647%,74.117647%);fill-opacity:1;" d="M 24 5.996094 L 24 15.503906 L 32.578125 34 L 36.988281 34 Z M 24 5.996094 "/>
<path style=" stroke:none;fill-rule:nonzero;fill:rgb(93.333333%,93.333333%,93.333333%);fill-opacity:1;" d="M 11.011719 34 L 15.421875 34 L 24 15.503906 L 24 5.996094 Z M 11.011719 34 "/>
<path style=" stroke:none;fill-rule:nonzero;fill:rgb(74.117647%,74.117647%,74.117647%);fill-opacity:1;" d="M 24 24 L 30 24 L 30 28 L 24 28 Z M 24 24 "/>
<path style=" stroke:none;fill-rule:nonzero;fill:rgb(93.333333%,93.333333%,93.333333%);fill-opacity:1;" d="M 18 24 L 24 24 L 24 28 L 18 28 Z M 18 24 "/>
</g>
</svg>
