<svg id="Layer_1" data-name="Layer 1" xmlns="http://www.w3.org/2000/svg" viewBox="0 0 55.12 21.04"><defs><style>.cls-1{fill:#cb3836;}.cls-2{fill:#fff;}</style></defs><title>icon-npm</title><g id="_Group_" data-name="&lt;Group&gt;"><rect id="_Rectangle_" data-name="&lt;Rectangle&gt;" class="cls-1" width="55.12" height="17.97"/><rect id="_Rectangle_2" data-name="&lt;Rectangle&gt;" class="cls-1" x="15.33" y="0.79" width="12.23" height="20.24"/><polygon id="_Path_" data-name="&lt;Path&gt;" class="cls-2" points="2.63 15.14 2.63 2.81 14.96 2.81 14.96 15.14 11.46 15.14 11.46 5.81 8.8 5.81 8.8 15.14 2.63 15.14"/><polygon id="_Path_2" data-name="&lt;Path&gt;" class="cls-2" points="18.37 17.98 18.37 2.81 30.67 2.81 30.67 15.14 24.52 15.14 24.52 17.98 18.37 17.98"/><rect id="_Path_3" data-name="&lt;Path&gt;" class="cls-1" x="24.99" y="5.81" width="3.39" height="5.81"/><g id="_Group_2" data-name="&lt;Group&gt;"><polygon id="_Path_4" data-name="&lt;Path&gt;" class="cls-2" points="34.15 15.14 34.15 2.81 46.48 2.81 46.48 15.14 42.98 15.14 42.98 5.81 40.31 5.81 40.31 15.14 34.15 15.14"/><polygon id="_Path_5" data-name="&lt;Path&gt;" class="cls-2" points="49.15 15.14 52.65 15.14 52.65 2.81 46.48 2.81 46.48 5.81 49.15 5.81 49.15 15.14"/></g></g></svg>