<svg id="Layer_1" data-name="Layer 1" xmlns="http://www.w3.org/2000/svg" viewBox="0 0 58.63 22.05"><defs><style>.cls-1{fill:#dcdbdb;}.cls-2{fill:#b5b5b6;}.cls-3{fill:#f8f8f8;}.cls-4{fill:#48515c;}.cls-5{fill:#58606a;}.cls-6{fill:#303c48;}.cls-7{fill:#6acad4;}.cls-8{fill:#fdfeff;}.cls-9{fill:#2f3945;}.cls-10{fill:#6e6e6e;}.cls-11{font-size:6.32px;}.cls-11,.cls-12,.cls-13{fill:#231f20;font-family:Kannada Sangam MN;}.cls-12{font-size:2px;}.cls-13{font-size:1.62px;}</style></defs><title>icon-cordova</title><g id="_Group_" data-name="&lt;Group&gt;"><g id="_Group_2" data-name="&lt;Group&gt;"><polygon id="_Path_" data-name="&lt;Path&gt;" class="cls-1" points="0 7.67 1.92 20.67 19.17 20.67 21.25 7.67 0 7.67"/><polygon id="_Path_2" data-name="&lt;Path&gt;" class="cls-2" points="5.37 20.67 19.17 20.67 21.25 7.67 12.65 7.67 8.31 15.42 5.37 20.67"/><polygon id="_Path_3" data-name="&lt;Path&gt;" class="cls-3" points="0 7.67 4.5 0 16.5 0 21.25 7.67 0 7.67"/><polygon id="_Path_4" data-name="&lt;Path&gt;" class="cls-4" points="3.88 7.67 5.88 4.03 15.38 4.03 17.38 7.67 3.88 7.67"/><rect id="_Path_5" data-name="&lt;Path&gt;" class="cls-3" x="8.6" y="3.32" width="4.04" height="2.38"/><polygon id="_Path_6" data-name="&lt;Path&gt;" class="cls-5" points="3.88 7.67 4.75 15.42 16.58 15.42 17.38 7.67 3.88 7.67"/><polygon id="_Path_7" data-name="&lt;Path&gt;" class="cls-6" points="16.58 15.42 17.38 7.67 12.65 7.67 8.31 15.42 16.58 15.42"/><g id="_Group_3" data-name="&lt;Group&gt;"><rect id="_Path_8" data-name="&lt;Path&gt;" class="cls-7" x="7.05" y="9.54" width="0.96" height="3.58" rx="0.48" ry="0.48"/><rect id="_Path_9" data-name="&lt;Path&gt;" class="cls-8" x="7.28" y="9.83" width="0.5" height="3" rx="0.25" ry="0.25"/><rect id="_Path_10" data-name="&lt;Path&gt;" class="cls-7" x="13.24" y="9.54" width="0.96" height="3.58" rx="0.48" ry="0.48"/><rect id="_Path_11" data-name="&lt;Path&gt;" class="cls-8" x="13.47" y="9.83" width="0.5" height="3" rx="0.25" ry="0.25"/></g><polygon id="_Path_12" data-name="&lt;Path&gt;" class="cls-9" points="15.38 4.03 12.65 4.03 12.65 5.7 12.65 7.67 17.38 7.67 15.38 4.03"/><g id="_Group_4" data-name="&lt;Group&gt;"><polygon id="_Path_13" data-name="&lt;Path&gt;" class="cls-10" points="3.48 20.67 2.23 22.05 18.56 22.05 17.35 20.67 3.48 20.67"/><rect id="_Rectangle_" data-name="&lt;Rectangle&gt;" class="cls-10" x="5.31" y="17.88" width="1.5" height="3.48"/><rect id="_Rectangle_2" data-name="&lt;Rectangle&gt;" class="cls-10" x="14.06" y="17.88" width="1.5" height="3.48"/></g></g><text class="cls-11" transform="translate(24.25 13.59) scale(1.06 1)">CORDOVA</text><text class="cls-12" transform="translate(25.04 7.95) scale(1.15 1)">APACHE</text><text class="cls-13" transform="translate(56.14 10.25) scale(1.08 1)">TM</text></g></svg>