<svg id="LOGOS" xmlns="http://www.w3.org/2000/svg" xmlns:xlink="http://www.w3.org/1999/xlink" viewBox="0 0 421.45 114.57"><defs><style>.cls-1{fill:url(#linear-gradient);}.cls-2{fill:url(#linear-gradient-2);}.cls-3{fill:url(#linear-gradient-3);}.cls-4{fill:#c1bfbe;}.cls-5{fill:#484749;}</style><linearGradient id="linear-gradient" x1="-659.65" y1="-470.61" x2="-694.96" y2="-470.85" gradientTransform="matrix(-0.98, -0.32, 0.29, -0.88, -498.52, -568.51)" gradientUnits="userSpaceOnUse"><stop offset="0.23" stop-color="#999875"/><stop offset="0.56" stop-color="#9b9977"/><stop offset="0.68" stop-color="#a09f7e"/><stop offset="0.77" stop-color="#a9a889"/><stop offset="0.84" stop-color="#b7b69a"/><stop offset="0.9" stop-color="#c9c7b0"/><stop offset="0.95" stop-color="#dfddcc"/><stop offset="0.99" stop-color="#f8f6eb"/><stop offset="1" stop-color="#fcfaf0"/></linearGradient><linearGradient id="linear-gradient-2" x1="-654.21" y1="-408.8" x2="-705.02" y2="-496.8" gradientTransform="matrix(-0.98, -0.32, 0.29, -0.88, -498.52, -568.51)" gradientUnits="userSpaceOnUse"><stop offset="0" stop-color="#49a547"/><stop offset="1" stop-color="#409143"/></linearGradient><linearGradient id="linear-gradient-3" x1="-649.55" y1="-472.06" x2="-685.57" y2="-447.87" gradientTransform="matrix(-0.98, -0.32, 0.29, -0.88, -498.52, -568.51)" gradientUnits="userSpaceOnUse"><stop offset="0" stop-color="#42a347"/><stop offset="0.36" stop-color="#4ca84a"/><stop offset="0.97" stop-color="#68b554"/><stop offset="1" stop-color="#69b654"/></linearGradient></defs><title>icon-mongo</title><path class="cls-1" d="M29.31,112.15l-3-1S26.7,96,21.23,94.93c-3.61-4.18.55-178.49,13.66-.6,0,0-4.48,2.25-5.33,6.08S29.31,112.15,29.31,112.15Z" transform="translate(-1.72 -0.45)"/><path class="cls-2" d="M30.93,97.51S57,80.36,50.86,44.75C45,18.88,31.12,10.37,29.63,7.12A39.07,39.07,0,0,1,26.34.75l1.11,72.09S25.15,94.85,30.93,97.51Z" transform="translate(-1.72 -0.45)"/><path class="cls-3" d="M24.79,98.46S0.37,81.8,1.78,52.41s18.65-43.85,22-46.47C26,3.62,26.05,2.73,26.22.45c1.52,3.27,1.27,48.84,1.43,54.17C28.27,75.35,26.5,94.55,24.79,98.46Z" transform="translate(-1.72 -0.45)"/><path class="cls-4" d="M303.46,43.81c1.4,0,6.71.24,9.18,0.24,4.61,0,7.81-.24,16.45-0.24,7.24,0,13.33,1.95,17.69,5.69,5.26,4.55,8.06,10.89,8.06,18.6,0,11-5,17.3-10,20.88-5,3.74-11.52,5.85-20.81,5.85-4.94,0-13.41-.16-20.48-0.24h-0.1c-0.33-.65.61-3.18,1.19-3.25a10.62,10.62,0,0,0,3.32-.66c1.49-.61,1.85-1.38,2-4.06,0.25-5,.16-11,0.16-17.87,0-4.87.08-14.38-.08-17.38-0.25-2.52-1.31-3.17-3.45-3.66a45.92,45.92,0,0,0-4.61-.73C301.78,46.49,303,44.3,303.46,43.81ZM319.88,89c1.73,1.38,5.18,1.95,8.23,1.95a16,16,0,0,0,11.6-4.14c3.87-3.49,6.5-8.86,6.5-17.38,0-8.2-3.13-14.87-9.54-18.76-3.62-2.27-8.31-3.17-13.65-3.17a11.35,11.35,0,0,0-4,.49,2.13,2.13,0,0,0-.74,1.14c-0.16,1.46-.16,12.59-0.16,19.17,0,6.74,0,16.17.16,17.3A5,5,0,0,0,319.88,89Z" transform="translate(-1.72 -0.45)"/><path class="cls-4" d="M361.76,43.81c0.74,0,2.93.24,8.52,0.24,5.26,0,9.54-.16,14.64-0.16,6.33,0,15.05,2.27,15.05,11.7,0,4.63-3.29,8.37-7.57,10.15-0.25.08-.25,0.24,0,0.33,6.09,1.54,11.43,5.28,11.43,12.43,0,7-4.36,11.37-10.69,14.13-3.87,1.71-8.64,2.27-13.49,2.27-3.7,0-13.62-.41-19.13-0.32-0.58-.24.53-2.84,1-3.25a15.44,15.44,0,0,0,3.73-.58c2-.49,2.21-1.12,2.45-4,0.17-2.52.17-11.53,0.17-18,0-8.77.08-14.7,0-17.63-0.08-2.27-.91-3-2.47-3.41-1.23-.24-3.29-0.49-4.93-0.73C360.09,46.57,361.35,44.13,361.76,43.81Zm33.53,36.47c0-7.15-5.26-11.21-14.89-11.21a37.26,37.26,0,0,0-4.19.08,0.64,0.64,0,0,0-.49.41c0,5.12-.08,13.32.16,16.57,0.16,1.38,1.15,3.33,2.39,3.9,1.32,0.73,4.28.89,6.33,0.89C390.27,90.92,395.29,87.76,395.29,80.28ZM376.62,47.79a1.75,1.75,0,0,0-.74,1.3c-0.08,2.92-.16,10.56-0.16,15.84a0.52,0.52,0,0,0,.41.41c1.07,0.08,3.7.16,5.92,0.16,3.13,0,4.94-.41,5.92-0.89,2.63-1.3,3.87-4.14,3.87-7.23,0-7.07-4.93-9.75-12.25-9.75A21.91,21.91,0,0,0,376.62,47.79Z" transform="translate(-1.72 -0.45)"/><path class="cls-5" d="M67.5,94.79a3.52,3.52,0,0,1-.25-1.64,2.08,2.08,0,0,1,.25-1.09,27.23,27.23,0,0,0,3.16-.64c1.45-.36,2-1.15,2.09-3C73,84,73,75.81,72.91,70V69.86a2.29,2.29,0,0,0-.76-2.06,16.48,16.48,0,0,0-4.36-1.91,1.16,1.16,0,0,1-1-1,1.46,1.46,0,0,1,1.35-1.1,52.1,52.1,0,0,0,11.08-2.86,1.61,1.61,0,0,1,.33,1.17c0,0.26,0,.52-0.06.8-0.07.82-.15,1.74-0.15,2.66a0.6,0.6,0,0,0,.61.53,0.6,0.6,0,0,0,.43-0.18c4.67-3.65,8.85-5,11-5,3.53,0,6.28,1.69,8.41,5.15a0.57,0.57,0,0,0,.48.28,0.54,0.54,0,0,0,.45-0.24c4.29-3.25,8.55-5.2,11.4-5.2,6.73,0,10.76,5,10.76,13.47,0,2.42,0,5.49,0,8.36,0,2.51,0,4.87,0,6.5A2.23,2.23,0,0,0,124,91a17.21,17.21,0,0,0,4.2,1h0.07a6.22,6.22,0,0,1-.42,2.75c-0.45,0-1.06,0-1.83-.07-1.4-.07-3.31-0.17-5.55-0.17-4.47,0-6.81.09-9,.23a6.75,6.75,0,0,1,0-2.73,24.1,24.1,0,0,0,2.73-.64c1.42-.47,1.83-1.11,1.92-3,0-1.34.29-13.17-.17-16a7.15,7.15,0,0,0-7.42-6.31,13.07,13.07,0,0,0-7.4,2.82,1.09,1.09,0,0,0-.27.7v0.05a30.22,30.22,0,0,1,.32,6c0,1.52,0,3.14,0,4.75,0,3.26,0,6.34,0,8.66a2.18,2.18,0,0,0,1.73,2.27L104,91.57c0.65,0.16,1.32.32,2.31,0.47a4.38,4.38,0,0,1,0,2,1.59,1.59,0,0,1-.29.7c-2.49-.09-5-0.16-8.72-0.16-1.12,0-2.94,0-4.55.09-1.3,0-2.54.07-3.24,0.07a3.21,3.21,0,0,1-.24-1.42A2.47,2.47,0,0,1,89.46,92l1-.18c0.86-.15,1.61-0.29,2.33-0.46,1.22-.37,1.68-1,1.77-2.6,0.24-3.62.42-14-.09-16.64-0.87-4.18-3.26-6.31-7.09-6.31A13.33,13.33,0,0,0,80,68.68a2.24,2.24,0,0,0-.68,1.67c0,1.24,0,2.72,0,4.3,0,5.23,0,11.74.09,14.56a2.31,2.31,0,0,0,2,2.28c0.36,0.1,1,.2,1.69.32L84.4,92a5.81,5.81,0,0,1-.22,2.75c-0.71,0-1.59,0-2.6-.09-1.54-.07-3.46-0.15-5.64-0.15-2.57,0-4.36.09-5.8,0.15-1,0-1.8.09-2.63,0.09h0Z" transform="translate(-1.72 -0.45)"/><path class="cls-5" d="M150.42,95.52c-12.36,0-16.76-9.05-16.76-17.53a15.66,15.66,0,0,1,7.2-13.75A22,22,0,0,1,152,61c9.43,0,16,6.77,16,16.47,0,6.59-2.63,11.8-7.61,15.05a21.51,21.51,0,0,1-10,3h0ZM149.1,64.41a7,7,0,0,0-3.93,1.1c-2.86,1.73-4.31,5.2-4.31,10.29,0,9.53,4.78,16.19,11.62,16.19a7.31,7.31,0,0,0,5-1.77c2.1-1.71,3.22-5.21,3.22-10.11,0-9.39-4.67-15.7-11.62-15.7h0Z" transform="translate(-1.72 -0.45)"/><path class="cls-5" d="M278.39,95.52c-12.36,0-16.76-9.05-16.76-17.53a15.66,15.66,0,0,1,7.21-13.76A22,22,0,0,1,280,61c9.43,0,16,6.77,16,16.47,0,6.6-2.63,11.8-7.61,15.05a21.49,21.49,0,0,1-10,3h0Zm-1.32-31.11a7,7,0,0,0-3.94,1.1c-2.85,1.73-4.31,5.2-4.31,10.29,0,9.53,4.78,16.19,11.62,16.19a7.31,7.31,0,0,0,5-1.77c2.1-1.71,3.22-5.21,3.22-10.11,0-9.39-4.67-15.7-11.62-15.7h0Z" transform="translate(-1.72 -0.45)"/><path class="cls-5" d="M235.72,115c-4.44,0-7.63-.94-10.36-3a9.7,9.7,0,0,1-3.85-7.18,5.61,5.61,0,0,1,1.46-3.65,38.51,38.51,0,0,1,6.7-5.36,0.34,0.34,0,0,0,.22-0.33,0.34,0.34,0,0,0-.26-0.34c-3.41-1.3-4.44-3.44-4.75-4.6,0,0,0-.11,0-0.18a1.07,1.07,0,0,1,.43-1.33c0.48-.34,1.24-0.79,2.06-1.27a27.11,27.11,0,0,0,3.31-2.15,0.54,0.54,0,0,0-.14-0.84c-5-1.69-7.59-5.44-7.59-11.14a11.09,11.09,0,0,1,4.66-9.13A21.28,21.28,0,0,1,238,61h0.19a21.44,21.44,0,0,1,8,1.77,12.7,12.7,0,0,0,4.7.75,6.38,6.38,0,0,0,5.09-1.91A4.37,4.37,0,0,1,256.2,63a5.47,5.47,0,0,1-.91,3.34,4.13,4.13,0,0,1-3.16,1.37l-0.37,0a10.45,10.45,0,0,1-1.91-.32l-0.32.11a0.53,0.53,0,0,0,0,.51,1.08,1.08,0,0,1,0,.13,22.59,22.59,0,0,1,.46,3.12c0,6-2.36,8.59-4.91,10.51A16.79,16.79,0,0,1,236.68,85h0l-1,.08-1,.08h-0.07c-0.56.16-2,.84-2,2.12,0,1.06.66,2.38,3.78,2.62l2,0.14c4.13,0.29,9.28.65,11.71,1.47a8.09,8.09,0,0,1,5.41,7.79c0,5.36-3.82,10.41-10.21,13.49a22.2,22.2,0,0,1-9.66,2.17h0Zm-0.49-18.85a6.28,6.28,0,0,0-3.09.77c-3,1.93-4.41,3.86-4.41,6.08a6.5,6.5,0,0,0,2.56,5.24c2.12,1.79,5,2.66,8.73,2.66,7.39,0,10.7-4,10.7-7.9,0-2.74-1.37-4.57-4.2-5.61a33,33,0,0,0-10.28-1.24h0Zm0.49-32.09c-3.81,0-6.27,3-6.27,7.66s2.12,10.17,8.08,10.17a5.8,5.8,0,0,0,3.8-1.47c1.39-1.27,2.29-3.9,2.29-6.68,0-6.07-3-9.69-7.9-9.69h0Z" transform="translate(-1.72 -0.45)"/><path class="cls-5" d="M215.43,91.93a14.75,14.75,0,0,1-4.69-1.22,2.16,2.16,0,0,1-.58-1.14C210,87.05,210,79.74,210,74.95c0-3.9-.66-7.31-2.3-9.75a9.91,9.91,0,0,0-8.39-4.39c-3.21,0-7.49,2.19-11,5.2-0.08.08-.63,0.6-0.61-0.2s0.14-2.42.21-3.45a1.77,1.77,0,0,0-.54-1.51,50.56,50.56,0,0,1-11.18,2.92c-1.75.34-2.19,2-.33,2.6h0a15.9,15.9,0,0,1,4.25,1.86,2.21,2.21,0,0,1,.66,2c0.08,5.44.08,13.81-.16,18.36-0.08,1.79-.58,2.44-1.89,2.76l0.12,0a25.66,25.66,0,0,1-3,.57,4.43,4.43,0,0,0,0,3.25c0.82,0,5-.24,8.47-0.24,4.77,0,7.24.24,8.47,0.24a4.54,4.54,0,0,0,.33-3.25,17.53,17.53,0,0,1-3.37-.49c-1.32-.32-1.65-1-1.73-2.44-0.16-3.82-.16-11.94-0.16-17.47a3.19,3.19,0,0,1,.9-2.68,10.84,10.84,0,0,1,6.74-2.44,7.4,7.4,0,0,1,5,1.71,7,7,0,0,1,2.3,4.55c0.33,3.09.25,9.26,0.25,14.62,0,2.92-.25,3.66-1.32,4a13.28,13.28,0,0,1-3.37.65c-0.49.49-.33,2.76,0,3.25,2.14,0,4.61-.24,8.23-0.24,4.52,0,7.4.24,8.55,0.24A4.5,4.5,0,0,0,215.43,91.93Z" transform="translate(-1.72 -0.45)"/><path class="cls-4" d="M416.81,94.63a6.35,6.35,0,1,1,6.35-6.44A6.28,6.28,0,0,1,416.81,94.63Zm0-12.14a5.78,5.78,0,1,0,5.75,5.8A5.69,5.69,0,0,0,416.83,82.49Zm1.55,9.8-1.64-3.53h-1.32v3.53h-1v-8h2.37c1.77,0,2.5.79,2.5,2.25a2,2,0,0,1-1.59,2.14l1.7,3.64h-1.05Zm-3-4.37h1.39c1.12,0,1.55-.39,1.55-1.41s-0.41-1.37-1.68-1.37h-1.27v2.78Z" transform="translate(-1.72 -0.45)"/></svg>